<svg width="34" height="34" viewBox="0 0 34 34" fill="none" xmlns="http://www.w3.org/2000/svg">
<g id="noun-attach-1000617 1" clip-path="url(#clip0_80_10943)">
<g id="Group">
<g id="Group_2">
<path id="Vector" d="M9.44225 24.599C7.08419 22.2399 7.26442 19.2419 9.92422 16.5794L18.1643 8.36716C18.3783 8.15282 19.1742 7.43361 20.3803 7.21893C21.2098 7.07129 22.4422 7.13917 23.6035 8.30047C23.6035 8.30047 23.6049 8.30182 23.6061 8.30301C24.7943 9.49129 24.8984 10.6791 24.776 11.4663C24.6002 12.5986 23.8901 13.4115 23.593 13.7083L15.3073 21.9682C15.0021 22.2737 14.2851 22.9921 13.2991 22.9921C12.6967 22.9921 12.1278 22.7287 11.6089 22.2097C11.6079 22.2084 11.6067 22.2072 11.6053 22.2061C10.6265 21.2273 10.7792 19.9043 12.0141 18.6673L20.2471 10.4255C20.5281 10.1441 20.9841 10.144 21.2653 10.4248L21.2656 10.4252C21.5467 10.7062 21.5468 11.1619 21.266 11.4431L13.0329 19.6847C12.0861 20.6328 12.4537 21.018 12.6198 21.1842C12.6222 21.1866 12.6244 21.1888 12.6261 21.1905C12.8661 21.4304 13.0923 21.5518 13.299 21.5518C13.6879 21.5518 14.0941 21.145 14.2892 20.9495L22.5754 12.6891C22.7716 12.4929 23.242 11.9583 23.3525 11.2454C23.456 10.5798 23.1984 9.93219 22.5871 9.32091C22.5866 9.3204 22.5861 9.31989 22.5856 9.31938L22.5853 9.31904C22.0049 8.73865 21.3481 8.5092 20.6323 8.63648C20.002 8.74883 19.4569 9.1103 19.1817 9.3859L10.9418 17.598C9.73635 18.8047 8.06899 21.1883 10.4603 23.5806C12.6823 25.8019 14.9049 24.5119 16.3781 23.0387L23.1733 16.2004C23.4537 15.9184 23.9097 15.9169 24.1915 16.197C24.192 16.1975 24.1927 16.1982 24.1932 16.1987C24.4736 16.4791 24.4746 16.9339 24.1949 17.2153L17.3981 24.0553C14.697 26.7563 11.7978 26.9538 9.44225 24.599Z" fill="url(#paint0_linear_80_10943)"/>
</g>
</g>
</g>
<defs>
<linearGradient id="paint0_linear_80_10943" x1="24.6407" y1="9.33771" x2="9.41086" y2="24.5676" gradientUnits="userSpaceOnUse">
<stop stop-color="#892EBA"/>
<stop offset="1" stop-color="#BB23C0"/>
</linearGradient>
<clipPath id="clip0_80_10943">
<rect width="24" height="24" fill="white" transform="translate(17) rotate(45)"/>
</clipPath>
</defs>
</svg>
