<svg width="24" height="24" viewBox="0 0 24 24" fill="none" xmlns="http://www.w3.org/2000/svg">
<g id="noun-mic-1045070 1">
<path id="Vector" d="M18.3412 9.31405C17.9773 9.31405 17.6824 9.5974 17.6824 9.94709V13.2389C17.6824 15.9847 15.3576 18.2186 12.5 18.2186C9.64238 18.2186 7.3176 15.9847 7.3176 13.2389V9.94709C7.3176 9.5974 7.02272 9.31405 6.6588 9.31405C6.29488 9.31405 6 9.5974 6 9.94709V13.2389C6 16.4691 8.56537 19.1345 11.8412 19.4528V22.7339H10.1721C9.80814 22.7339 9.51326 23.0173 9.51326 23.367C9.51326 23.7167 9.80814 24 10.1721 24H14.8279C15.1919 24 15.4867 23.7167 15.4867 23.367C15.4867 23.0173 15.1919 22.7339 14.8279 22.7339H13.1588V19.4528C16.4346 19.1345 19 16.4691 19 13.2389V9.94709C19 9.5974 18.7051 9.31405 18.3412 9.31405ZM12.5 17.501C14.9339 17.501 16.914 15.5983 16.914 13.2596V5.24135C16.914 2.90266 14.9339 1 12.5 1C10.0661 1 8.08603 2.90266 8.08603 5.24135V13.2596C8.08603 15.5983 10.0661 17.501 12.5 17.501ZM9.40363 5.24135C9.40363 3.60077 10.7926 2.26607 12.5 2.26607C14.2073 2.26607 15.5964 3.60077 15.5964 5.24135V13.2596C15.5964 14.9002 14.2073 16.2349 12.5 16.2349C10.7926 16.2349 9.40363 14.9002 9.40363 13.2596V5.24135Z" fill="white"/>
</g>
</svg>
