<svg width="24" height="24" viewBox="0 0 24 24" fill="none" xmlns="http://www.w3.org/2000/svg">
<path d="M23.1366 0.29014C22.9329 0.087557 22.6296 0.0279738 22.3631 0.13739L0.518757 9.25797C0.252257 9.36956 0.0821738 9.62739 0.0832571 9.91556C0.0854238 10.2037 0.258757 10.4594 0.52634 10.5677L9.31109 14.1156L12.859 22.8993C12.9673 23.1669 13.223 23.3402 13.5155 23.3424C13.8026 23.3424 14.0583 23.1712 14.1688 22.9069L23.2883 1.06364C23.3998 0.797141 23.3403 0.493807 23.1366 0.29014ZM15.2792 9.14856C15.4124 9.01531 15.4861 8.83656 15.4861 8.64806C15.4861 8.45847 15.4124 8.28081 15.2792 8.14756C15.0029 7.87131 14.5544 7.87131 14.2782 8.14756L9.68592 12.7398L2.65509 9.90039L21.3188 2.10797L13.5263 20.7716L10.6869 13.7408L15.2792 9.14856Z" fill="white"/>
</svg>
